<?xml version="1.0" encoding="UTF-8" standalone="no"?>
<!-- Created with Inkscape (http://www.inkscape.org/) -->

<svg
   width="286.10278mm"
   height="326.52277mm"
   viewBox="0 0 286.10278 326.52277"
   version="1.1"
   id="svg5"
   inkscape:version="1.2.2 (b0a8486541, 2022-12-01)"
   sodipodi:docname="FINAL_SPICEY_LOGO.svg"
   xmlns:inkscape="http://www.inkscape.org/namespaces/inkscape"
   xmlns:sodipodi="http://sodipodi.sourceforge.net/DTD/sodipodi-0.dtd"
   xmlns:xlink="http://www.w3.org/1999/xlink"
   xmlns="http://www.w3.org/2000/svg"
   xmlns:svg="http://www.w3.org/2000/svg">
  <sodipodi:namedview
     id="namedview7"
     pagecolor="#ffffff"
     bordercolor="#666666"
     borderopacity="1.0"
     inkscape:showpageshadow="2"
     inkscape:pageopacity="0.0"
     inkscape:pagecheckerboard="0"
     inkscape:deskcolor="#d1d1d1"
     inkscape:document-units="mm"
     showgrid="false"
     inkscape:zoom="0.72515432"
     inkscape:cx="360.6129"
     inkscape:cy="795.6927"
     inkscape:window-width="1838"
     inkscape:window-height="1011"
     inkscape:window-x="0"
     inkscape:window-y="0"
     inkscape:window-maximized="1"
     inkscape:current-layer="layer1" />
  <defs
     id="defs2">
    <linearGradient
       inkscape:collect="always"
       xlink:href="#linearGradient4420"
       id="linearGradient13756"
       gradientUnits="userSpaceOnUse"
       x1="4475.5776"
       y1="7355.5005"
       x2="5478.8101"
       y2="7068.6851" />
    <linearGradient
       inkscape:collect="always"
       id="linearGradient4420">
      <stop
         style="stop-color:#5e5453;stop-opacity:1;"
         offset="0"
         id="stop4416" />
      <stop
         style="stop-color:#5e5453;stop-opacity:0;"
         offset="1"
         id="stop4418" />
    </linearGradient>
    <radialGradient
       id="radialGradient14458-7-8-9"
       cx="4977.2002"
       cy="7068.7002"
       r="501.66"
       gradientTransform="matrix(0.9325892,0,0,1.1703369,1479.1957,-1756.3179)"
       gradientUnits="userSpaceOnUse">
      <stop
         stop-color="#4d4d4d"
         offset="0"
         id="stop5-5-7-3" />
      <stop
         stop-color="#4d4d4d"
         stop-opacity="0"
         offset="1"
         id="stop7-3-9-7" />
    </radialGradient>
    <filter
       id="filter14430-5-2-4"
       x="-0.0089381901"
       y="-0.0074250318"
       width="1.0178769"
       height="1.0151813"
       color-interpolation-filters="sRGB">
      <feGaussianBlur
         stdDeviation="3.4821077"
         id="feGaussianBlur2-6-0-5" />
    </filter>
    <linearGradient
       inkscape:collect="always"
       xlink:href="#linearGradient2700"
       id="linearGradient13760"
       gradientUnits="userSpaceOnUse"
       gradientTransform="matrix(0.9325892,0,0,0.97430648,462.6735,124.67818)"
       x1="5544"
       y1="6038"
       x2="5568.9976"
       y2="4324.7393" />
    <linearGradient
       inkscape:collect="always"
       id="linearGradient2700">
      <stop
         style="stop-color:#766968;stop-opacity:1;"
         offset="0"
         id="stop2696" />
      <stop
         style="stop-color:#766968;stop-opacity:0;"
         offset="1"
         id="stop2698" />
    </linearGradient>
  </defs>
  <g
     inkscape:label="Layer 1"
     inkscape:groupmode="layer"
     id="layer1"
     transform="translate(-9.8269836,62.193824)">
    <g
       id="g25640"
       transform="matrix(0.03527778,0,0,-0.03527778,-903.11843,152.17631)">
      <g
         transform="translate(24808.766,-3674.872)"
         id="g48-2-4">
        <path
           d="m 5017,9694 c -60,-19 -555,-302 -2882,-1652 -346,-201 -681,-395 -744,-431 -140,-82 -202,-139 -244,-228 l -32,-68 V 2935 l 33,-68 c 41,-83 107,-149 203,-203 181,-102 1103,-636 1984,-1149 1167,-680 1544,-896 1634,-938 86,-41 182,-47 266,-19 59,20 361,192 1035,587 327,191 1051,612 1500,870 855,492 1208,702 1253,747 28,28 62,77 80,116 l 32,67 v 4380 l -27,57 c -39,84 -99,142 -219,213 -197,117 -2885,1672 -3340,1933 -135,77 -263,148 -285,157 -55,24 -187,29 -247,9 z m 205,-101 c 52,-21 149,-76 1138,-648 2154,-1246 2548,-1476 2584,-1506 23,-19 50,-57 67,-94 l 29,-61 -2,-2160 -3,-2159 -25,-50 c -34,-69 -82,-113 -191,-177 C 8397,2492 7968,2244 7605,2035 7148,1772 6621,1465 6145,1187 5668,908 5298,694 5251,670 c -54,-27 -141,-36 -197,-21 -42,11 -336,178 -1154,653 -250,145 -734,427 -1075,625 -607,353 -1052,610 -1329,769 -162,93 -217,138 -254,208 l -27,51 -3,2150 c -3,2433 -10,2214 81,2309 44,47 134,103 617,382 311,180 907,525 1325,767 418,242 785,455 815,472 30,17 210,122 400,232 464,268 545,313 588,329 52,18 134,17 184,-3 z"
           fill="#333"
           stroke="#333"
           stroke-width="50"
           id="path22-9-3"
           style="fill:#5e5453;fill-opacity:1;stroke:#5e5453;stroke-width:90;stroke-miterlimit:4;stroke-dasharray:none;stroke-opacity:1" />
        <g
           id="g32-1-0"
           transform="matrix(1.0722835,0,0,1.0263711,-496.11715,-127.96609)"
           style="stroke-width:0.95322">
          <path
             d="m 5540,8811 c -173,-56 -306,-175 -386,-348 -39,-82 -58,-159 -74,-288 -25,-209 -68,-272 -251,-365 -131,-67 -152,-89 -130,-136 l 12,-26 137,6 c 157,8 185,2 244,-48 23,-20 47,-36 54,-36 7,0 45,22 86,50 85,58 117,62 258,31 75,-17 88,-18 108,-5 22,14 28,46 16,79 -4,9 -34,34 -68,57 -170,114 -246,236 -246,398 0,83 18,157 57,235 35,69 173,203 250,243 95,50 117,98 68,147 -29,30 -59,31 -135,6 z"
             fill="#66884d"
             stroke="#2e6b40"
             id="path24-2-7"
             style="stroke-width:0.906078" />
          <path
             d="m 4591,7593 c -166,-280 -140,-520 91,-825 67,-88 248,-290 263,-293 6,-1 41,31 79,71 l 69,74 -89,92 c -50,51 -109,118 -133,148 l -44,55 229,3 229,2 32,53 31,52 -299,3 -299,2 -24,48 c -30,59 -67,172 -61,183 3,4 179,7 390,6 l 385,-2 15,44 c 8,25 15,47 15,50 0,3 -183,6 -407,6 h -408 l 3,55 c 2,30 10,82 18,115 12,50 13,61 1,70 -7,5 -20,21 -29,33 l -16,24 z"
             fill="url(#linearGradient16549)"
             filter="url(#filter14430)"
             stroke="url(#radialGradient14458)"
             id="path26-7-8"
             style="fill:url(#linearGradient13756);fill-opacity:1;stroke:url(#radialGradient14458-7-8-9);stroke-width:0.906078;filter:url(#filter14430-5-2-4)" />
          <path
             d="m 5639,7599 c -14,-11 -35,-21 -47,-22 -26,-2 -26,6 -6,-87 18,-87 9,-175 -32,-318 -68,-233 -150,-368 -408,-667 -414,-480 -567,-790 -566,-1154 1,-338 125,-632 399,-948 71,-81 105,-101 117,-68 3,8 -20,75 -51,150 -98,235 -131,421 -114,640 25,316 150,572 440,895 252,281 385,520 449,805 32,141 32,374 2,490 -24,89 -88,223 -130,272 l -27,31 z"
             fill="#a32c2c"
             id="path28-0-6"
             style="fill:#a32c2c;fill-opacity:1;fill-rule:nonzero;stroke-width:0.906078" />
          <path
             d="m 5544,6038 c -5,-9 -37,-46 -72,-82 l -63,-65 58,-69 c 32,-38 75,-98 96,-133 l 37,-64 -192,-3 -193,-2 -28,-49 c -15,-27 -27,-52 -27,-55 0,-3 110,-6 244,-6 h 244 l 6,-31 c 3,-17 6,-69 6,-115 v -84 h -578 l -11,-50 c -6,-28 -11,-53 -11,-56 0,-2 125,-4 278,-4 221,1 276,-2 274,-12 -17,-71 -95,-195 -186,-296 -58,-63 -80,-102 -60,-102 21,0 160,107 224,171 218,222 287,503 189,773 -31,87 -119,231 -186,305 -34,38 -41,42 -49,29 z"
             fill="url(#linearGradient16557)"
             stroke="#f48c06"
             id="path30-9-8"
             style="fill:url(#linearGradient13760);fill-opacity:1;stroke:#5e5453;stroke-width:0.906078;stroke-opacity:1" />
        </g>
        <g
           fill="#333333"
           id="g46-3-8"
           transform="matrix(1.0619078,0,0,1.0573249,-272.80203,-272.35194)"
           style="fill:#5e5453;fill-opacity:1;stroke-width:0.94374">
          <path
             d="m 2717,3880 c -184,-46 -294,-227 -244,-401 33,-112 105,-161 332,-229 145,-43 194,-66 220,-103 20,-28 19,-97 -1,-126 -37,-53 -154,-76 -249,-50 -38,11 -116,78 -140,122 -10,17 -14,17 -102,-4 -70,-18 -93,-27 -93,-39 0,-34 62,-139 106,-180 76,-70 140,-93 270,-98 123,-5 190,9 277,56 99,53 157,155 157,276 0,173 -79,249 -334,321 -195,55 -238,82 -240,153 -2,77 56,122 156,122 51,0 113,-22 148,-52 12,-10 53,-64 65,-85 1,-2 43,8 157,38 35,9 36,11 28,40 -26,91 -114,184 -209,220 -63,25 -236,35 -304,19 z"
             id="path34-6-4"
             style="fill:#5e5453;fill-opacity:1;stroke:#463f3e;stroke-width:0.94374;stroke-opacity:1" />
          <path
             d="m 5285,3883 c -149,-20 -303,-125 -383,-262 -66,-113 -91,-306 -57,-450 48,-202 203,-360 393,-400 178,-37 372,17 492,138 55,55 120,154 120,183 0,9 -36,25 -106,46 -59,18 -107,32 -108,30 -44,-99 -111,-170 -180,-190 -103,-30 -232,-4 -299,60 -97,92 -132,284 -82,438 25,75 81,144 145,179 49,27 64,30 140,30 68,0 93,-5 125,-22 47,-25 106,-85 129,-130 9,-18 20,-33 24,-33 15,1 194,49 199,54 14,13 -57,126 -117,186 -114,115 -268,165 -435,143 z"
             id="path36-0-3"
             style="fill:#5e5453;fill-opacity:1;stroke-width:0.94374" />
          <path
             d="m 3440,3330 v -550 h 210 v 368 l 158,4 c 152,3 159,4 224,35 85,40 150,100 185,172 25,50 28,67 28,156 -1,88 -4,107 -28,156 -32,67 -109,142 -172,169 -73,31 -156,40 -387,40 h -218 z m 519,325 c 76,-45 102,-135 62,-217 -34,-71 -63,-82 -229,-88 l -142,-5 v 337 l 138,-4 c 115,-2 142,-6 171,-23 z"
             id="path38-6-1"
             style="fill:#5e5453;fill-opacity:1;stroke:#463f3e;stroke-width:0.894818;stroke-opacity:1" />
          <path
             d="m 4430,3330 v -550 h 210 v 1100 h -210 z"
             id="path40-2-4"
             style="fill:#5e5453;fill-opacity:1;stroke-width:0.94374" />
          <path
             d="m 6020,3330 v -550 h 680 v 190 h -470 v 270 h 410 v 190 h -410 v 250 h 470 v 200 h -680 z"
             id="path42-6-9"
             style="fill:#5e5453;fill-opacity:1;stroke-width:0.94374" />
          <path
             d="m 6820,3871 c 0,-5 86,-158 190,-340 l 191,-331 -6,-420 h 210 l -3,207 -3,208 191,334 c 104,184 190,339 190,343 0,5 -53,7 -117,6 l -118,-3 -120,-238 -121,-238 -123,241 -124,240 h -118 c -66,0 -119,-4 -119,-9 z"
             id="path44-1-2"
             style="fill:#5e5453;fill-opacity:1;stroke-width:0.94374" />
        </g>
      </g>
    </g>
  </g>
</svg>
